<?xml version="1.0" encoding="iso-8859-1"?>
<svg fill="#ff4c60" version="1.1" id="Layer_1" xmlns="http://www.w3.org/2000/svg" xmlns:xlink="http://www.w3.org/1999/xlink" x="0px" y="0px"
	 viewBox="0 0 490 490" xml:space="preserve">
<g>
	<g>
		<g>
			<path d="M480,102.5H335v-40h10c5.522,0,10-4.477,10-10v-35c0-5.523-4.478-10-10-10H145c-5.523,0-10,4.477-10,10v35
				c0,5.523,4.477,10,10,10h10v40H10c-5.523,0-10,4.477-10,10v150c0,5.523,4.477,10,10,10h10v200c0,5.523,4.477,10,10,10h430
				c5.522,0,10-4.477,10-10v-200h10c5.522,0,10-4.477,10-10v-150C490,106.977,485.522,102.5,480,102.5z M155,27.5h180v15H155V27.5z
				 M315,62.5v40h-15v-40H315z M280,62.5v40h-70v-40H280z M190,62.5v40h-15v-40H190z M450,462.5H40v-20h380v-20H40v-150h135v20
				c0,5.523,4.477,10,10,10h120c5.522,0,10-4.477,10-10v-20h135V462.5z M255,272.5v-30h40v40H195v-40h40v30H255z M470,252.5H315v-20
				c0-5.523-4.478-10-10-10H185c-5.523,0-10,4.477-10,10v20H20v-130h450V252.5z"/>
			<rect x="205" y="142.5" width="80" height="20"/>
			<rect x="195" y="177.5" width="100" height="20"/>
		</g>
	</g>
</g>
</svg>
